Coordinates
version=1
nRows=22
nColumns=24
inDegrees=yes

Units are S.I. units (second, meters, Newtons, ...)
Angles are in degrees.

endheader
time	pelvis_tilt	pelvis_list	pelvis_rotation	pelvis_tx	pelvis_ty	pelvis_tz	hip_flexion_r	hip_adduction_r	hip_rotation_r	knee_angle_r	ankle_angle_r	subtalar_angle_r	mtp_angle_r	hip_flexion_l	hip_adduction_l	hip_rotation_l	knee_angle_l	ankle_angle_l	subtalar_angle_l	mtp_angle_l	lumbar_extension	lumbar_bending	lumbar_rotation
      1.00000000	      4.91088342	     -0.01772861	      0.31693601	      0.59297927	      1.04451872	      0.04547657	     -2.72214022	      1.86572639	     -3.73474302	    -11.70894070	      8.02953380	     -0.00000117	      0.00000000	     18.72395497	     -3.05574113	     -4.16094209	    -57.79861670	      1.43402064	     -0.00000132	      0.00000000	    -16.36315303	      1.03253926	      1.14502232
      1.01700000	      4.96532429	     -0.04246250	      0.06706831	      0.59108151	      1.04444649	      0.04656788	     -4.20340898	      1.98597766	     -3.53146339	    -10.93946736	      8.41867281	     -0.00000120	      0.00000000	     19.41355249	     -3.07531720	     -4.57365338	    -53.54241866	      1.69157536	     -0.00000250	      0.00000000	    -16.49833208	      0.90200253	      1.49857308
      1.03300000	      4.98386471	     -0.25400297	     -0.11646720	      0.58911323	      1.04392054	      0.04775708	     -5.72794396	      2.31429576	     -3.41334392	    -10.00879750	      8.71935227	     -0.00000127	      0.00000000	     19.93462316	     -3.44817148	     -5.31144042	    -48.78622933	      1.64802700	     -0.00000370	      0.00000000	    -16.64426168	      1.00464281	      1.82387124
      1.05000000	      5.12680592	     -0.58424950	     -0.23210907	      0.58716685	      1.04325020	      0.04845569	     -7.35519646	      2.73352976	     -3.33719358	     -9.16211577	      9.01762962	     -0.00000123	      0.00000000	     20.07863949	     -3.94775624	     -6.30024833	    -43.51922146	      1.29580022	     -0.00000492	      0.00000000	    -16.96730401	      1.22924467	      1.96268455
      1.06700000	      5.00147829	     -1.17131345	     -0.51883443	      0.58506651	      1.04155294	      0.04931063	     -8.61521408	      3.38256633	     -3.01206203	     -8.45936977	      9.34183456	     -0.00000115	      0.00000000	     20.35021791	     -4.72925583	     -7.56298182	    -38.01710890	      0.76393888	     -0.00000598	      0.00000000	    -16.82677020	      1.75254531	      2.41540837
      1.08300000	      4.92812244	     -1.58232936	     -0.78016119	      0.58337240	      1.03963701	      0.04960589	     -9.99694465	      3.78660412	     -2.54360242	     -7.71582954	      9.72337352	     -0.00000133	      0.00000000	     20.29178823	     -5.15540769	     -8.90232237	    -32.12484952	      0.00325096	     -0.00000654	      0.00000000	    -16.89352488	      1.97612337	      2.62403869
      1.10000000	      4.78094486	     -2.15115056	     -1.04491098	      0.58209357	      1.03720987	      0.05010529	    -11.40144657	      4.35131580	     -2.06487288	     -6.85041778	      9.99619809	     -0.00000107	      0.00000000	     20.28272237	     -5.59722019	     -9.90836240	    -26.38157760	     -0.68393110	     -0.00000620	      0.00000000	    -16.74934503	      2.45129555	      3.03106616
      1.11700000	      4.57437029	     -2.61310612	     -1.29139588	      0.58080459	      1.03440933	      0.05031436	    -12.58880187	      4.77637518	     -1.48648500	     -6.34617456	     10.46582495	     -0.00000100	      0.00000000	     20.19287014	     -5.71429601	    -10.30230783	    -20.56643821	     -1.28407721	     -0.00000546	      0.00000000	    -16.63389061	      2.80836262	      3.09623682
      1.13300000	      4.42975026	     -3.16700126	     -1.76993684	      0.57923630	      1.03134305	      0.05027886	    -13.72785102	      5.18774945	     -0.62918059	     -6.07105228	     11.01250822	     -0.00000104	      0.00000000	     20.04452013	     -5.89799454	    -10.11824424	    -15.16456979	     -1.58746225	     -0.00000437	      0.00000000	    -16.62190257	      3.15235335	      3.60258453
      1.15000000	      4.49126667	     -3.66751099	     -2.01075004	      0.57843274	      1.02844026	      0.04980066	    -15.13811888	      5.55501590	     -0.00898993	     -5.76330611	     11.49405396	     -0.00000092	      0.00000000	     19.51027426	     -5.92619000	     -9.10715338	     -9.98172536	     -1.68577882	     -0.00000318	      0.00000000	    -16.72752233	      3.56897696	      3.92337595
      1.16700000	      4.44715225	     -4.00602948	     -2.35565690	      0.57804803	      1.02514697	      0.04962549	    -16.50480065	      5.72267430	      0.54810369	     -5.38152757	     11.94613650	     -0.00000082	      0.00000000	     19.15394258	     -5.93834070	     -7.88778098	     -5.75956059	     -1.47364982	     -0.00000220	      0.00000000	    -16.82741935	      3.59809271	      3.87366904
      1.18300000	      4.56239353	     -4.34787698	     -2.89959962	      0.57749745	      1.02226066	      0.04922062	    -17.78454825	      5.75815514	      1.24428491	     -5.50595452	     12.47616998	     -0.00000068	      0.00000000	     18.70532816	     -6.08557691	     -6.87022204	     -2.65759886	     -1.07198428	     -0.00000141	      0.00000000	    -16.94386021	      3.71543810	      4.50987372
      1.20000000	      4.45962015	     -4.46190756	     -3.16363184	      0.57779253	      1.01923115	      0.04872396	    -18.91160616	      5.65284548	      1.58454177	     -5.50627681	     12.84513913	     -0.00000055	      0.00000000	     18.62882450	     -5.99953757	     -5.86884250	     -0.79805091	     -0.70492243	     -0.00000092	      0.00000000	    -16.84603136	      3.49323179	      4.21955533
      1.21700000	      4.57994008	     -4.56334215	     -3.42266531	      0.57736341	      1.01699331	      0.04794081	    -19.83531675	      5.49419321	      1.96173666	     -6.28805916	     13.33765361	     -0.00000028	      0.00000000	     18.69567062	     -5.94266370	     -5.07520327	     -0.65732165	     -0.37567768	     -0.00000075	      0.00000000	    -17.06657165	      3.24033087	      4.34520042
      1.23300000	      4.66446594	     -4.47838806	     -3.74859724	      0.57767929	      1.01513521	      0.04690545	    -20.60650275	      5.09908708	      2.39759690	     -7.30581429	     13.77855888	      0.00000007	      0.00000000	     18.85044552	     -5.71715090	     -4.57831460	     -1.66024242	     -0.37496756	     -0.00000094	      0.00000000	    -17.09771788	      2.76062331	      4.24184958
      1.25000000	      4.59981321	     -4.29890301	     -4.35015759	      0.57915438	      1.01369790	      0.04527339	    -21.08245793	      4.46261844	      3.04522931	     -8.68325074	     14.07611926	      0.00000052	      0.00000000	     19.12125362	     -5.44918366	     -4.48857869	     -3.53889528	     -0.74327308	     -0.00000119	      0.00000000	    -16.85774959	      2.27407940	      4.49234300
      1.26700000	      4.45416516	     -4.03205236	     -4.39821162	      0.58128733	      1.01234440	      0.04339867	    -21.26418316	      3.98005622	      3.16088109	    -10.49313072	     14.29984703	      0.00000094	      0.00000000	     19.68062972	     -4.97348796	     -4.01297272	     -6.11964002	     -1.50878928	     -0.00000151	      0.00000000	    -16.39132687	      1.71906828	      4.30776302
      1.28300000	      4.23845530	     -4.14937133	     -4.60883113	      0.58222668	      1.01136493	      0.04204930	    -20.90536891	      3.88673612	      3.47002689	    -13.11265907	     14.31950451	      0.00000135	      0.00000000	     20.24383159	     -5.00373148	     -3.76265075	     -8.69225050	     -2.61687918	     -0.00000175	      0.00000000	    -16.16318017	      1.40482862	      4.24560763
      1.30000000	      4.12924080	     -3.97814702	     -4.83720312	      0.58473123	      1.01114648	      0.04045012	    -20.70646697	      3.44880236	      3.61786964	    -15.64852169	     13.82484134	      0.00000192	      0.00000000	     20.58864235	     -4.76311722	     -3.77085034	    -11.34238251	     -3.46921066	     -0.00000192	      0.00000000	    -15.78429938	      0.72747268	      4.14536470
      1.31700000	      4.25169604	     -3.70134596	     -5.01255278	      0.58773612	      1.01177057	      0.03860818	    -20.19718186	      2.91520584	      3.62683466	    -19.19758046	     13.02063671	      0.00000257	      0.00000000	     20.51623851	     -4.40010453	     -3.90987930	    -13.78207422	     -3.98604142	     -0.00000207	      0.00000000	    -15.60596553	     -0.01270912	      3.84304429
      1.33300000	      4.45576952	     -3.41565861	     -5.07574460	      0.59091059	      1.01293661	      0.03656156	    -19.26257935	      2.39357753	      3.32447442	    -23.55717673	     11.63305194	      0.00000327	      0.00000000	     20.18592222	     -3.99474620	     -4.01428583	    -15.97896458	     -4.08223337	     -0.00000218	      0.00000000	    -15.45624877	     -0.74970422	      3.62188113
      1.35000000	      4.90287332	     -3.04365315	     -4.98784581	      0.59424166	      1.01486478	      0.03396273	    -18.03926931	      1.71443604	      2.46220383	    -28.65051873	      9.35491270	      0.00000401	      0.00000000	     19.35352139	     -3.41515065	     -4.04754435	    -17.77890512	     -3.81323061	     -0.00000226	      0.00000000	    -15.52811092	     -1.48053560	      3.26976288
